<svg width="12" height="10" viewBox="0 0 12 10" fill="none" xmlns="http://www.w3.org/2000/svg">
<path d="M0 5.00002C0 4.72388 0.205203 4.49566 0.47144 4.45955L0.545455 4.45457L10.1338 4.455L6.66983 1.00516C6.45636 0.792609 6.45561 0.447248 6.66817 0.233776C6.8614 0.039711 7.16439 0.0214539 7.37826 0.179434L7.43955 0.232115L11.8396 4.61321C11.8677 4.64122 11.8921 4.67155 11.9129 4.70357C11.9187 4.71321 11.9247 4.72307 11.9304 4.73313C11.9356 4.74175 11.9403 4.7507 11.9447 4.75975C11.9508 4.77292 11.9569 4.78653 11.9623 4.80042C11.9668 4.81112 11.9705 4.82153 11.9738 4.83203C11.9779 4.84504 11.9818 4.85891 11.9851 4.87299C11.9876 4.88282 11.9896 4.89228 11.9913 4.90178C11.9938 4.91591 11.9958 4.93053 11.9973 4.94533C11.9986 4.95662 11.9993 4.9678 11.9998 4.97899C11.9999 4.98578 12 4.99288 12 5.00002L11.9997 5.02115C11.9993 5.03186 11.9986 5.04255 11.9975 5.05322L12 5.00002C12 5.03444 11.9968 5.06812 11.9907 5.10077C11.9893 5.10857 11.9876 5.11657 11.9858 5.12455C11.9819 5.14097 11.9774 5.15678 11.9722 5.17228C11.9697 5.17998 11.9668 5.18821 11.9636 5.19638C11.9572 5.21279 11.9503 5.22844 11.9427 5.24368C11.9391 5.25084 11.9352 5.25835 11.931 5.26577C11.9242 5.27789 11.9172 5.2894 11.9098 5.30062C11.9045 5.30856 11.8987 5.31683 11.8927 5.32497L11.8879 5.33125C11.8733 5.35045 11.8573 5.36865 11.8402 5.38572L11.8396 5.38622L7.43959 9.76804C7.22613 9.98061 6.88077 9.9799 6.6682 9.76644C6.47495 9.57239 6.45797 9.26933 6.61686 9.05612L6.6698 8.99506L10.1324 5.54591L0.545455 5.54548C0.244208 5.54548 0 5.30127 0 5.00002Z" fill="url(#paint0_linear_205_342)"/>
<defs>
<linearGradient id="paint0_linear_205_342" x1="6" y1="9.927" x2="6" y2="0.073185" gradientUnits="userSpaceOnUse">
<stop stop-color="#456AE5"/>
<stop offset="1" stop-color="#FF8086"/>
</linearGradient>
</defs>
</svg>
