<svg width="14" height="11" viewBox="0 0 14 11" fill="none" xmlns="http://www.w3.org/2000/svg">
<path d="M2.57272 6.48162H5.51296H8.45321L8.48704 5.80935H2.60654L2.57272 6.48162ZM2.60654 4.86791H6.98309H11.3935L11.4273 4.06654H2.60654V4.86791ZM2.60654 3.22741H7.01692H11.4273V2.32374H2.60654V3.22741ZM0 11L3.97713e-05 1.16187C3.97713e-05 0.842355 0 0.672273 0.0981459 0.341299C0.386045 0.113766 0.732137 0 1.13642 0H12.8974C13.3017 0 13.6478 0.113766 13.9357 0.341299C14 0.672273 14 0.842355 14 1.16187V4.54517V8.09533C14 8.41484 14 8.41807 13.9357 8.95366C13.6478 9.18119 13.3017 9.29495 12.8974 9.29495H7.71815H2.60654L0 11ZM2.23901 8.71402H13.2649V0.968224H0.76889V9.68224L2.23901 8.71402Z" fill="#B3B3B3"/>
</svg>
