<svg width="28" height="23" viewBox="0 0 28 23" fill="none" xmlns="http://www.w3.org/2000/svg">
<path d="M9.99996 19.5002H24.6666V15.9335H9.99996V19.5002ZM3.33329 7.06683H7.33329V3.50016H3.33329V7.06683ZM3.33329 13.3002H7.33329V9.7335H3.33329V13.3002ZM3.33329 19.5002H7.33329V15.9335H3.33329V19.5002ZM9.99996 13.3002H24.6666V9.7335H9.99996V13.3002ZM9.99996 7.06683H24.6666V3.50016H9.99996V7.06683ZM3.33329 22.1668C2.59996 22.1668 1.97218 21.9057 1.44996 21.3835C0.927737 20.8613 0.666626 20.2335 0.666626 19.5002V3.50016C0.666626 2.76683 0.927737 2.13905 1.44996 1.61683C1.97218 1.09461 2.59996 0.833496 3.33329 0.833496H24.6666C25.4 0.833496 26.0277 1.09461 26.55 1.61683C27.0722 2.13905 27.3333 2.76683 27.3333 3.50016V19.5002C27.3333 20.2335 27.0722 20.8613 26.55 21.3835C26.0277 21.9057 25.4 22.1668 24.6666 22.1668H3.33329Z" fill="url(#paint0_linear_113_1443)"/>
<defs>
<linearGradient id="paint0_linear_113_1443" x1="14" y1="0.833496" x2="14" y2="22.1668" gradientUnits="userSpaceOnUse">
<stop stop-color="#105CBC"/>
<stop offset="1" stop-color="#BCC4CE"/>
</linearGradient>
</defs>
</svg>
