<svg width="26" height="26" viewBox="0 0 26 26" fill="none" xmlns="http://www.w3.org/2000/svg">
<path d="M2.6 26C1.885 26 1.27292 25.7171 0.76375 25.1514C0.254583 24.5856 0 23.9056 0 23.1111V0L2.1775 2.41944L4.3225 0L6.5 2.41944L8.6775 0L10.8225 2.41944L13 0L15.1775 2.41944L17.3225 0L19.5 2.41944L21.6775 0L23.8225 2.41944L26 0V23.1111C26 23.9056 25.7454 24.5856 25.2362 25.1514C24.7271 25.7171 24.115 26 23.4 26H2.6ZM2.6 23.1111H11.7V14.4444H2.6V23.1111ZM14.3 23.1111H23.4V20.2222H14.3V23.1111ZM14.3 17.3333H23.4V14.4444H14.3V17.3333ZM2.6 11.5556H23.4V7.22222H2.6V11.5556Z" fill="url(#paint0_linear_40_3378)"/>
<defs>
<linearGradient id="paint0_linear_40_3378" x1="13" y1="0" x2="13" y2="26" gradientUnits="userSpaceOnUse">
<stop stop-color="#105CBC"/>
<stop offset="1" stop-color="#BCC4CE"/>
</linearGradient>
</defs>
</svg>
