<svg width="23" height="24" viewBox="0 0 23 24" fill="none" xmlns="http://www.w3.org/2000/svg">
<path d="M11.5 12C9.91875 12 8.5651 11.4125 7.43906 10.2375C6.31302 9.0625 5.75 7.65 5.75 6C5.75 4.35 6.31302 2.9375 7.43906 1.7625C8.5651 0.5875 9.91875 0 11.5 0C13.0813 0 14.4349 0.5875 15.5609 1.7625C16.687 2.9375 17.25 4.35 17.25 6C17.25 7.65 16.687 9.0625 15.5609 10.2375C14.4349 11.4125 13.0813 12 11.5 12ZM0 24V19.8C0 18.95 0.209635 18.1688 0.628906 17.4563C1.04818 16.7438 1.60521 16.2 2.3 15.825C3.78542 15.05 5.29479 14.4688 6.82812 14.0813C8.36146 13.6938 9.91875 13.5 11.5 13.5C13.0813 13.5 14.6385 13.6938 16.1719 14.0813C17.7052 14.4688 19.2146 15.05 20.7 15.825C21.3948 16.2 21.9518 16.7438 22.3711 17.4563C22.7904 18.1688 23 18.95 23 19.8V24H0ZM2.875 21H20.125V19.8C20.125 19.525 20.0591 19.275 19.9273 19.05C19.7956 18.825 19.6219 18.65 19.4062 18.525C18.1125 17.85 16.8068 17.3438 15.4891 17.0063C14.1714 16.6688 12.8417 16.5 11.5 16.5C10.1583 16.5 8.82865 16.6688 7.51094 17.0063C6.19323 17.3438 4.8875 17.85 3.59375 18.525C3.37812 18.65 3.20443 18.825 3.07266 19.05C2.94089 19.275 2.875 19.525 2.875 19.8V21ZM11.5 9C12.2906 9 12.9674 8.70625 13.5305 8.11875C14.0935 7.53125 14.375 6.825 14.375 6C14.375 5.175 14.0935 4.46875 13.5305 3.88125C12.9674 3.29375 12.2906 3 11.5 3C10.7094 3 10.0326 3.29375 9.46953 3.88125C8.90651 4.46875 8.625 5.175 8.625 6C8.625 6.825 8.90651 7.53125 9.46953 8.11875C10.0326 8.70625 10.7094 9 11.5 9Z" fill="url(#paint0_linear_40_3380)"/>
<defs>
<linearGradient id="paint0_linear_40_3380" x1="11.5" y1="0" x2="11.5" y2="24" gradientUnits="userSpaceOnUse">
<stop stop-color="#105CBC"/>
<stop offset="1" stop-color="#BCC4CE"/>
</linearGradient>
</defs>
</svg>
